<?xml version="1.0" encoding="utf-8" standalone="no"?>
<!DOCTYPE svg PUBLIC "-//W3C//DTD SVG 1.1//EN"
  "http://www.w3.org/Graphics/SVG/1.1/DTD/svg11.dtd">
<!-- Created with matplotlib (https://matplotlib.org/) -->
<svg height="504pt" version="1.1" viewBox="0 0 720 504" width="720pt" xmlns="http://www.w3.org/2000/svg" xmlns:xlink="http://www.w3.org/1999/xlink">
 <defs>
  <style type="text/css">
*{stroke-linecap:butt;stroke-linejoin:round;}
  </style>
 </defs>
 <g id="figure_1">
  <g id="patch_1">
   <path d="M 0 504 
L 720 504 
L 720 0 
L 0 0 
z
" style="fill:#ffffff;"/>
  </g>
  <g id="axes_1">
   <g id="patch_2">
    <path d="M 90 236.88 
L 343.636364 236.88 
L 343.636364 60.48 
L 90 60.48 
z
" style="fill:#ffffff;"/>
   </g>
   <g id="matplotlib.axis_1">
    <g id="xtick_1">
     <g id="line2d_1">
      <defs>
       <path d="M 0 0 
L 0 3.5 
" id="maabde1c674" style="stroke:#000000;stroke-width:0.8;"/>
      </defs>
      <g>
       <use style="stroke:#000000;stroke-width:0.8;" x="90" xlink:href="#maabde1c674" y="236.88"/>
      </g>
     </g>
     <g id="text_1">
      <!-- 0 -->
      <defs>
       <path d="M 31.78125 66.40625 
Q 24.171875 66.40625 20.328125 58.90625 
Q 16.5 51.421875 16.5 36.375 
Q 16.5 21.390625 20.328125 13.890625 
Q 24.171875 6.390625 31.78125 6.390625 
Q 39.453125 6.390625 43.28125 13.890625 
Q 47.125 21.390625 47.125 36.375 
Q 47.125 51.421875 43.28125 58.90625 
Q 39.453125 66.40625 31.78125 66.40625 
z
M 31.78125 74.21875 
Q 44.046875 74.21875 50.515625 64.515625 
Q 56.984375 54.828125 56.984375 36.375 
Q 56.984375 17.96875 50.515625 8.265625 
Q 44.046875 -1.421875 31.78125 -1.421875 
Q 19.53125 -1.421875 13.0625 8.265625 
Q 6.59375 17.96875 6.59375 36.375 
Q 6.59375 54.828125 13.0625 64.515625 
Q 19.53125 74.21875 31.78125 74.21875 
z
" id="DejaVuSans-48"/>
      </defs>
      <g transform="translate(86.81875 251.478437)scale(0.1 -0.1)">
       <use xlink:href="#DejaVuSans-48"/>
      </g>
     </g>
    </g>
    <g id="xtick_2">
     <g id="line2d_2">
      <g>
       <use style="stroke:#000000;stroke-width:0.8;" x="140.727273" xlink:href="#maabde1c674" y="236.88"/>
      </g>
     </g>
     <g id="text_2">
      <!-- 20 -->
      <defs>
       <path d="M 19.1875 8.296875 
L 53.609375 8.296875 
L 53.609375 0 
L 7.328125 0 
L 7.328125 8.296875 
Q 12.9375 14.109375 22.625 23.890625 
Q 32.328125 33.6875 34.8125 36.53125 
Q 39.546875 41.84375 41.421875 45.53125 
Q 43.3125 49.21875 43.3125 52.78125 
Q 43.3125 58.59375 39.234375 62.25 
Q 35.15625 65.921875 28.609375 65.921875 
Q 23.96875 65.921875 18.8125 64.3125 
Q 13.671875 62.703125 7.8125 59.421875 
L 7.8125 69.390625 
Q 13.765625 71.78125 18.9375 73 
Q 24.125 74.21875 28.421875 74.21875 
Q 39.75 74.21875 46.484375 68.546875 
Q 53.21875 62.890625 53.21875 53.421875 
Q 53.21875 48.921875 51.53125 44.890625 
Q 49.859375 40.875 45.40625 35.40625 
Q 44.1875 33.984375 37.640625 27.21875 
Q 31.109375 20.453125 19.1875 8.296875 
z
" id="DejaVuSans-50"/>
      </defs>
      <g transform="translate(134.364773 251.478437)scale(0.1 -0.1)">
       <use xlink:href="#DejaVuSans-50"/>
       <use x="63.623047" xlink:href="#DejaVuSans-48"/>
      </g>
     </g>
    </g>
    <g id="xtick_3">
     <g id="line2d_3">
      <g>
       <use style="stroke:#000000;stroke-width:0.8;" x="191.454545" xlink:href="#maabde1c674" y="236.88"/>
      </g>
     </g>
     <g id="text_3">
      <!-- 40 -->
      <defs>
       <path d="M 37.796875 64.3125 
L 12.890625 25.390625 
L 37.796875 25.390625 
z
M 35.203125 72.90625 
L 47.609375 72.90625 
L 47.609375 25.390625 
L 58.015625 25.390625 
L 58.015625 17.1875 
L 47.609375 17.1875 
L 47.609375 0 
L 37.796875 0 
L 37.796875 17.1875 
L 4.890625 17.1875 
L 4.890625 26.703125 
z
" id="DejaVuSans-52"/>
      </defs>
      <g transform="translate(185.092045 251.478437)scale(0.1 -0.1)">
       <use xlink:href="#DejaVuSans-52"/>
       <use x="63.623047" xlink:href="#DejaVuSans-48"/>
      </g>
     </g>
    </g>
    <g id="xtick_4">
     <g id="line2d_4">
      <g>
       <use style="stroke:#000000;stroke-width:0.8;" x="242.181818" xlink:href="#maabde1c674" y="236.88"/>
      </g>
     </g>
     <g id="text_4">
      <!-- 60 -->
      <defs>
       <path d="M 33.015625 40.375 
Q 26.375 40.375 22.484375 35.828125 
Q 18.609375 31.296875 18.609375 23.390625 
Q 18.609375 15.53125 22.484375 10.953125 
Q 26.375 6.390625 33.015625 6.390625 
Q 39.65625 6.390625 43.53125 10.953125 
Q 47.40625 15.53125 47.40625 23.390625 
Q 47.40625 31.296875 43.53125 35.828125 
Q 39.65625 40.375 33.015625 40.375 
z
M 52.59375 71.296875 
L 52.59375 62.3125 
Q 48.875 64.0625 45.09375 64.984375 
Q 41.3125 65.921875 37.59375 65.921875 
Q 27.828125 65.921875 22.671875 59.328125 
Q 17.53125 52.734375 16.796875 39.40625 
Q 19.671875 43.65625 24.015625 45.921875 
Q 28.375 48.1875 33.59375 48.1875 
Q 44.578125 48.1875 50.953125 41.515625 
Q 57.328125 34.859375 57.328125 23.390625 
Q 57.328125 12.15625 50.6875 5.359375 
Q 44.046875 -1.421875 33.015625 -1.421875 
Q 20.359375 -1.421875 13.671875 8.265625 
Q 6.984375 17.96875 6.984375 36.375 
Q 6.984375 53.65625 15.1875 63.9375 
Q 23.390625 74.21875 37.203125 74.21875 
Q 40.921875 74.21875 44.703125 73.484375 
Q 48.484375 72.75 52.59375 71.296875 
z
" id="DejaVuSans-54"/>
      </defs>
      <g transform="translate(235.819318 251.478437)scale(0.1 -0.1)">
       <use xlink:href="#DejaVuSans-54"/>
       <use x="63.623047" xlink:href="#DejaVuSans-48"/>
      </g>
     </g>
    </g>
    <g id="xtick_5">
     <g id="line2d_5">
      <g>
       <use style="stroke:#000000;stroke-width:0.8;" x="292.909091" xlink:href="#maabde1c674" y="236.88"/>
      </g>
     </g>
     <g id="text_5">
      <!-- 80 -->
      <defs>
       <path d="M 31.78125 34.625 
Q 24.75 34.625 20.71875 30.859375 
Q 16.703125 27.09375 16.703125 20.515625 
Q 16.703125 13.921875 20.71875 10.15625 
Q 24.75 6.390625 31.78125 6.390625 
Q 38.8125 6.390625 42.859375 10.171875 
Q 46.921875 13.96875 46.921875 20.515625 
Q 46.921875 27.09375 42.890625 30.859375 
Q 38.875 34.625 31.78125 34.625 
z
M 21.921875 38.8125 
Q 15.578125 40.375 12.03125 44.71875 
Q 8.5 49.078125 8.5 55.328125 
Q 8.5 64.0625 14.71875 69.140625 
Q 20.953125 74.21875 31.78125 74.21875 
Q 42.671875 74.21875 48.875 69.140625 
Q 55.078125 64.0625 55.078125 55.328125 
Q 55.078125 49.078125 51.53125 44.71875 
Q 48 40.375 41.703125 38.8125 
Q 48.828125 37.15625 52.796875 32.3125 
Q 56.78125 27.484375 56.78125 20.515625 
Q 56.78125 9.90625 50.3125 4.234375 
Q 43.84375 -1.421875 31.78125 -1.421875 
Q 19.734375 -1.421875 13.25 4.234375 
Q 6.78125 9.90625 6.78125 20.515625 
Q 6.78125 27.484375 10.78125 32.3125 
Q 14.796875 37.15625 21.921875 38.8125 
z
M 18.3125 54.390625 
Q 18.3125 48.734375 21.84375 45.5625 
Q 25.390625 42.390625 31.78125 42.390625 
Q 38.140625 42.390625 41.71875 45.5625 
Q 45.3125 48.734375 45.3125 54.390625 
Q 45.3125 60.0625 41.71875 63.234375 
Q 38.140625 66.40625 31.78125 66.40625 
Q 25.390625 66.40625 21.84375 63.234375 
Q 18.3125 60.0625 18.3125 54.390625 
z
" id="DejaVuSans-56"/>
      </defs>
      <g transform="translate(286.546591 251.478437)scale(0.1 -0.1)">
       <use xlink:href="#DejaVuSans-56"/>
       <use x="63.623047" xlink:href="#DejaVuSans-48"/>
      </g>
     </g>
    </g>
    <g id="xtick_6">
     <g id="line2d_6">
      <g>
       <use style="stroke:#000000;stroke-width:0.8;" x="343.636364" xlink:href="#maabde1c674" y="236.88"/>
      </g>
     </g>
     <g id="text_6">
      <!-- 100 -->
      <defs>
       <path d="M 12.40625 8.296875 
L 28.515625 8.296875 
L 28.515625 63.921875 
L 10.984375 60.40625 
L 10.984375 69.390625 
L 28.421875 72.90625 
L 38.28125 72.90625 
L 38.28125 8.296875 
L 54.390625 8.296875 
L 54.390625 0 
L 12.40625 0 
z
" id="DejaVuSans-49"/>
      </defs>
      <g transform="translate(334.092614 251.478437)scale(0.1 -0.1)">
       <use xlink:href="#DejaVuSans-49"/>
       <use x="63.623047" xlink:href="#DejaVuSans-48"/>
       <use x="127.246094" xlink:href="#DejaVuSans-48"/>
      </g>
     </g>
    </g>
   </g>
   <g id="matplotlib.axis_2">
    <g id="ytick_1">
     <g id="line2d_7">
      <defs>
       <path d="M 0 0 
L -3.5 0 
" id="m373396ee6a" style="stroke:#000000;stroke-width:0.8;"/>
      </defs>
      <g>
       <use style="stroke:#000000;stroke-width:0.8;" x="90" xlink:href="#m373396ee6a" y="236.88"/>
      </g>
     </g>
     <g id="text_7">
      <!-- 0 -->
      <g transform="translate(76.6375 240.679219)scale(0.1 -0.1)">
       <use xlink:href="#DejaVuSans-48"/>
      </g>
     </g>
    </g>
    <g id="ytick_2">
     <g id="line2d_8">
      <g>
       <use style="stroke:#000000;stroke-width:0.8;" x="90" xlink:href="#m373396ee6a" y="202.291765"/>
      </g>
     </g>
     <g id="text_8">
      <!-- 50 -->
      <defs>
       <path d="M 10.796875 72.90625 
L 49.515625 72.90625 
L 49.515625 64.59375 
L 19.828125 64.59375 
L 19.828125 46.734375 
Q 21.96875 47.46875 24.109375 47.828125 
Q 26.265625 48.1875 28.421875 48.1875 
Q 40.625 48.1875 47.75 41.5 
Q 54.890625 34.8125 54.890625 23.390625 
Q 54.890625 11.625 47.5625 5.09375 
Q 40.234375 -1.421875 26.90625 -1.421875 
Q 22.3125 -1.421875 17.546875 -0.640625 
Q 12.796875 0.140625 7.71875 1.703125 
L 7.71875 11.625 
Q 12.109375 9.234375 16.796875 8.0625 
Q 21.484375 6.890625 26.703125 6.890625 
Q 35.15625 6.890625 40.078125 11.328125 
Q 45.015625 15.765625 45.015625 23.390625 
Q 45.015625 31 40.078125 35.4375 
Q 35.15625 39.890625 26.703125 39.890625 
Q 22.75 39.890625 18.8125 39.015625 
Q 14.890625 38.140625 10.796875 36.28125 
z
" id="DejaVuSans-53"/>
      </defs>
      <g transform="translate(70.275 206.090983)scale(0.1 -0.1)">
       <use xlink:href="#DejaVuSans-53"/>
       <use x="63.623047" xlink:href="#DejaVuSans-48"/>
      </g>
     </g>
    </g>
    <g id="ytick_3">
     <g id="line2d_9">
      <g>
       <use style="stroke:#000000;stroke-width:0.8;" x="90" xlink:href="#m373396ee6a" y="167.703529"/>
      </g>
     </g>
     <g id="text_9">
      <!-- 100 -->
      <g transform="translate(63.9125 171.502748)scale(0.1 -0.1)">
       <use xlink:href="#DejaVuSans-49"/>
       <use x="63.623047" xlink:href="#DejaVuSans-48"/>
       <use x="127.246094" xlink:href="#DejaVuSans-48"/>
      </g>
     </g>
    </g>
    <g id="ytick_4">
     <g id="line2d_10">
      <g>
       <use style="stroke:#000000;stroke-width:0.8;" x="90" xlink:href="#m373396ee6a" y="133.115294"/>
      </g>
     </g>
     <g id="text_10">
      <!-- 150 -->
      <g transform="translate(63.9125 136.914513)scale(0.1 -0.1)">
       <use xlink:href="#DejaVuSans-49"/>
       <use x="63.623047" xlink:href="#DejaVuSans-53"/>
       <use x="127.246094" xlink:href="#DejaVuSans-48"/>
      </g>
     </g>
    </g>
    <g id="ytick_5">
     <g id="line2d_11">
      <g>
       <use style="stroke:#000000;stroke-width:0.8;" x="90" xlink:href="#m373396ee6a" y="98.527059"/>
      </g>
     </g>
     <g id="text_11">
      <!-- 200 -->
      <g transform="translate(63.9125 102.326278)scale(0.1 -0.1)">
       <use xlink:href="#DejaVuSans-50"/>
       <use x="63.623047" xlink:href="#DejaVuSans-48"/>
       <use x="127.246094" xlink:href="#DejaVuSans-48"/>
      </g>
     </g>
    </g>
    <g id="ytick_6">
     <g id="line2d_12">
      <g>
       <use style="stroke:#000000;stroke-width:0.8;" x="90" xlink:href="#m373396ee6a" y="63.938824"/>
      </g>
     </g>
     <g id="text_12">
      <!-- 250 -->
      <g transform="translate(63.9125 67.738042)scale(0.1 -0.1)">
       <use xlink:href="#DejaVuSans-50"/>
       <use x="63.623047" xlink:href="#DejaVuSans-53"/>
       <use x="127.246094" xlink:href="#DejaVuSans-48"/>
      </g>
     </g>
    </g>
    <g id="text_13">
     <!-- Intensity (8-bit) -->
     <defs>
      <path d="M 9.8125 72.90625 
L 19.671875 72.90625 
L 19.671875 0 
L 9.8125 0 
z
" id="DejaVuSans-73"/>
      <path d="M 54.890625 33.015625 
L 54.890625 0 
L 45.90625 0 
L 45.90625 32.71875 
Q 45.90625 40.484375 42.875 44.328125 
Q 39.84375 48.1875 33.796875 48.1875 
Q 26.515625 48.1875 22.3125 43.546875 
Q 18.109375 38.921875 18.109375 30.90625 
L 18.109375 0 
L 9.078125 0 
L 9.078125 54.6875 
L 18.109375 54.6875 
L 18.109375 46.1875 
Q 21.34375 51.125 25.703125 53.5625 
Q 30.078125 56 35.796875 56 
Q 45.21875 56 50.046875 50.171875 
Q 54.890625 44.34375 54.890625 33.015625 
z
" id="DejaVuSans-110"/>
      <path d="M 18.3125 70.21875 
L 18.3125 54.6875 
L 36.8125 54.6875 
L 36.8125 47.703125 
L 18.3125 47.703125 
L 18.3125 18.015625 
Q 18.3125 11.328125 20.140625 9.421875 
Q 21.96875 7.515625 27.59375 7.515625 
L 36.8125 7.515625 
L 36.8125 0 
L 27.59375 0 
Q 17.1875 0 13.234375 3.875 
Q 9.28125 7.765625 9.28125 18.015625 
L 9.28125 47.703125 
L 2.6875 47.703125 
L 2.6875 54.6875 
L 9.28125 54.6875 
L 9.28125 70.21875 
z
" id="DejaVuSans-116"/>
      <path d="M 56.203125 29.59375 
L 56.203125 25.203125 
L 14.890625 25.203125 
Q 15.484375 15.921875 20.484375 11.0625 
Q 25.484375 6.203125 34.421875 6.203125 
Q 39.59375 6.203125 44.453125 7.46875 
Q 49.3125 8.734375 54.109375 11.28125 
L 54.109375 2.78125 
Q 49.265625 0.734375 44.1875 -0.34375 
Q 39.109375 -1.421875 33.890625 -1.421875 
Q 20.796875 -1.421875 13.15625 6.1875 
Q 5.515625 13.8125 5.515625 26.8125 
Q 5.515625 40.234375 12.765625 48.109375 
Q 20.015625 56 32.328125 56 
Q 43.359375 56 49.78125 48.890625 
Q 56.203125 41.796875 56.203125 29.59375 
z
M 47.21875 32.234375 
Q 47.125 39.59375 43.09375 43.984375 
Q 39.0625 48.390625 32.421875 48.390625 
Q 24.90625 48.390625 20.390625 44.140625 
Q 15.875 39.890625 15.1875 32.171875 
z
" id="DejaVuSans-101"/>
      <path d="M 44.28125 53.078125 
L 44.28125 44.578125 
Q 40.484375 46.53125 36.375 47.5 
Q 32.28125 48.484375 27.875 48.484375 
Q 21.1875 48.484375 17.84375 46.4375 
Q 14.5 44.390625 14.5 40.28125 
Q 14.5 37.15625 16.890625 35.375 
Q 19.28125 33.59375 26.515625 31.984375 
L 29.59375 31.296875 
Q 39.15625 29.25 43.1875 25.515625 
Q 47.21875 21.78125 47.21875 15.09375 
Q 47.21875 7.46875 41.1875 3.015625 
Q 35.15625 -1.421875 24.609375 -1.421875 
Q 20.21875 -1.421875 15.453125 -0.5625 
Q 10.6875 0.296875 5.421875 2 
L 5.421875 11.28125 
Q 10.40625 8.6875 15.234375 7.390625 
Q 20.0625 6.109375 24.8125 6.109375 
Q 31.15625 6.109375 34.5625 8.28125 
Q 37.984375 10.453125 37.984375 14.40625 
Q 37.984375 18.0625 35.515625 20.015625 
Q 33.0625 21.96875 24.703125 23.78125 
L 21.578125 24.515625 
Q 13.234375 26.265625 9.515625 29.90625 
Q 5.8125 33.546875 5.8125 39.890625 
Q 5.8125 47.609375 11.28125 51.796875 
Q 16.75 56 26.8125 56 
Q 31.78125 56 36.171875 55.265625 
Q 40.578125 54.546875 44.28125 53.078125 
z
" id="DejaVuSans-115"/>
      <path d="M 9.421875 54.6875 
L 18.40625 54.6875 
L 18.40625 0 
L 9.421875 0 
z
M 9.421875 75.984375 
L 18.40625 75.984375 
L 18.40625 64.59375 
L 9.421875 64.59375 
z
" id="DejaVuSans-105"/>
      <path d="M 32.171875 -5.078125 
Q 28.375 -14.84375 24.75 -17.8125 
Q 21.140625 -20.796875 15.09375 -20.796875 
L 7.90625 -20.796875 
L 7.90625 -13.28125 
L 13.1875 -13.28125 
Q 16.890625 -13.28125 18.9375 -11.515625 
Q 21 -9.765625 23.484375 -3.21875 
L 25.09375 0.875 
L 2.984375 54.6875 
L 12.5 54.6875 
L 29.59375 11.921875 
L 46.6875 54.6875 
L 56.203125 54.6875 
z
" id="DejaVuSans-121"/>
      <path id="DejaVuSans-32"/>
      <path d="M 31 75.875 
Q 24.46875 64.65625 21.28125 53.65625 
Q 18.109375 42.671875 18.109375 31.390625 
Q 18.109375 20.125 21.3125 9.0625 
Q 24.515625 -2 31 -13.1875 
L 23.1875 -13.1875 
Q 15.875 -1.703125 12.234375 9.375 
Q 8.59375 20.453125 8.59375 31.390625 
Q 8.59375 42.28125 12.203125 53.3125 
Q 15.828125 64.359375 23.1875 75.875 
z
" id="DejaVuSans-40"/>
      <path d="M 4.890625 31.390625 
L 31.203125 31.390625 
L 31.203125 23.390625 
L 4.890625 23.390625 
z
" id="DejaVuSans-45"/>
      <path d="M 48.6875 27.296875 
Q 48.6875 37.203125 44.609375 42.84375 
Q 40.53125 48.484375 33.40625 48.484375 
Q 26.265625 48.484375 22.1875 42.84375 
Q 18.109375 37.203125 18.109375 27.296875 
Q 18.109375 17.390625 22.1875 11.75 
Q 26.265625 6.109375 33.40625 6.109375 
Q 40.53125 6.109375 44.609375 11.75 
Q 48.6875 17.390625 48.6875 27.296875 
z
M 18.109375 46.390625 
Q 20.953125 51.265625 25.265625 53.625 
Q 29.59375 56 35.59375 56 
Q 45.5625 56 51.78125 48.09375 
Q 58.015625 40.1875 58.015625 27.296875 
Q 58.015625 14.40625 51.78125 6.484375 
Q 45.5625 -1.421875 35.59375 -1.421875 
Q 29.59375 -1.421875 25.265625 0.953125 
Q 20.953125 3.328125 18.109375 8.203125 
L 18.109375 0 
L 9.078125 0 
L 9.078125 75.984375 
L 18.109375 75.984375 
z
" id="DejaVuSans-98"/>
      <path d="M 8.015625 75.875 
L 15.828125 75.875 
Q 23.140625 64.359375 26.78125 53.3125 
Q 30.421875 42.28125 30.421875 31.390625 
Q 30.421875 20.453125 26.78125 9.375 
Q 23.140625 -1.703125 15.828125 -13.1875 
L 8.015625 -13.1875 
Q 14.5 -2 17.703125 9.0625 
Q 20.90625 20.125 20.90625 31.390625 
Q 20.90625 42.671875 17.703125 53.65625 
Q 14.5 64.65625 8.015625 75.875 
z
" id="DejaVuSans-41"/>
     </defs>
     <g transform="translate(57.832812 187.441719)rotate(-90)scale(0.1 -0.1)">
      <use xlink:href="#DejaVuSans-73"/>
      <use x="29.492188" xlink:href="#DejaVuSans-110"/>
      <use x="92.871094" xlink:href="#DejaVuSans-116"/>
      <use x="132.080078" xlink:href="#DejaVuSans-101"/>
      <use x="193.603516" xlink:href="#DejaVuSans-110"/>
      <use x="256.982422" xlink:href="#DejaVuSans-115"/>
      <use x="309.082031" xlink:href="#DejaVuSans-105"/>
      <use x="336.865234" xlink:href="#DejaVuSans-116"/>
      <use x="376.074219" xlink:href="#DejaVuSans-121"/>
      <use x="435.253906" xlink:href="#DejaVuSans-32"/>
      <use x="467.041016" xlink:href="#DejaVuSans-40"/>
      <use x="506.054688" xlink:href="#DejaVuSans-56"/>
      <use x="569.677734" xlink:href="#DejaVuSans-45"/>
      <use x="605.761719" xlink:href="#DejaVuSans-98"/>
      <use x="669.238281" xlink:href="#DejaVuSans-105"/>
      <use x="697.021484" xlink:href="#DejaVuSans-116"/>
      <use x="736.230469" xlink:href="#DejaVuSans-41"/>
     </g>
    </g>
   </g>
   <g id="line2d_13">
    <path clip-path="url(#p02d3ef1059)" d="M 90 63.938824 
L 92.536364 64.630588 
L 95.072727 65.322353 
L 97.609091 66.705882 
L 100.145455 67.397647 
L 102.681818 68.781176 
L 105.218182 70.164706 
L 107.754545 72.24 
L 110.290909 77.082353 
L 112.827273 84 
L 115.363636 95.76 
L 117.9 110.978824 
L 120.436364 129.656471 
L 122.972727 148.334118 
L 125.509091 163.552941 
L 128.045455 172.545882 
L 130.581818 173.237647 
L 133.118182 165.628235 
L 135.654545 150.409412 
L 138.190909 131.04 
L 140.727273 110.978824 
L 143.263636 93.684706 
L 145.8 80.541176 
L 148.336364 71.548235 
L 150.872727 66.014118 
L 153.409091 63.247059 
L 155.945455 61.863529 
L 158.481818 61.171765 
L 161.018182 61.171765 
L 163.554545 61.863529 
L 166.090909 63.938824 
L 168.627273 67.397647 
L 171.163636 73.623529 
L 173.7 82.616471 
L 176.236364 96.451765 
L 178.772727 113.745882 
L 181.309091 133.115294 
L 183.845455 151.101176 
L 186.381818 165.628235 
L 188.918182 172.545882 
L 191.454545 171.162353 
L 193.990909 162.169412 
L 196.527273 146.258824 
L 199.063636 128.272941 
L 201.6 109.595294 
L 204.136364 93.684706 
L 206.672727 81.232941 
L 209.209091 72.931765 
L 211.745455 68.089412 
L 214.281818 65.322353 
L 216.818182 64.630588 
L 219.354545 66.014118 
L 221.890909 68.781176 
L 224.427273 75.007059 
L 226.963636 84 
L 229.5 97.835294 
L 232.036364 114.437647 
L 234.572727 133.115294 
L 237.109091 151.101176 
L 239.645455 164.936471 
L 242.181818 172.545882 
L 244.718182 171.854118 
L 247.254545 162.169412 
L 249.790909 146.950588 
L 252.327273 128.272941 
L 254.863636 110.287059 
L 257.4 95.068235 
L 259.936364 85.383529 
L 262.472727 81.924706 
L 265.009091 85.383529 
L 267.545455 95.068235 
L 270.081818 110.287059 
L 272.618182 128.272941 
L 275.154545 146.950588 
L 277.690909 162.169412 
L 280.227273 171.162353 
L 282.763636 172.545882 
L 285.3 164.936471 
L 287.836364 150.409412 
L 290.372727 132.423529 
L 292.909091 113.745882 
L 295.445455 97.143529 
L 297.981818 84 
L 300.518182 75.007059 
L 303.054545 68.781176 
L 305.590909 66.014118 
L 308.127273 64.630588 
L 310.663636 65.322353 
L 313.2 68.089412 
L 315.736364 72.931765 
L 318.272727 81.232941 
L 320.809091 93.684706 
L 323.345455 109.595294 
L 325.881818 128.272941 
L 328.418182 146.258824 
L 330.954545 162.169412 
L 333.490909 171.162353 
L 336.027273 172.545882 
L 338.563636 165.628235 
L 341.1 151.101176 
L 343.636364 133.115294 
L 346.172727 114.437647 
L 348.709091 97.835294 
L 351.245455 86.075294 
L 353.781818 79.849412 
" style="fill:none;stroke:#0000ff;stroke-dasharray:1.5,2.475;stroke-dashoffset:0;stroke-width:1.5;"/>
   </g>
   <g id="patch_3">
    <path d="M 90 236.88 
L 90 60.48 
" style="fill:none;stroke:#000000;stroke-linecap:square;stroke-linejoin:miter;stroke-width:0.8;"/>
   </g>
   <g id="patch_4">
    <path d="M 343.636364 236.88 
L 343.636364 60.48 
" style="fill:none;stroke:#000000;stroke-linecap:square;stroke-linejoin:miter;stroke-width:0.8;"/>
   </g>
   <g id="patch_5">
    <path d="M 90 236.88 
L 343.636364 236.88 
" style="fill:none;stroke:#000000;stroke-linecap:square;stroke-linejoin:miter;stroke-width:0.8;"/>
   </g>
   <g id="patch_6">
    <path d="M 90 60.48 
L 343.636364 60.48 
" style="fill:none;stroke:#000000;stroke-linecap:square;stroke-linejoin:miter;stroke-width:0.8;"/>
   </g>
   <g id="text_14">
    <!-- Row index: 10 (student-ID: 100) -->
    <defs>
     <path d="M 44.390625 34.1875 
Q 47.5625 33.109375 50.5625 29.59375 
Q 53.5625 26.078125 56.59375 19.921875 
L 66.609375 0 
L 56 0 
L 46.6875 18.703125 
Q 43.0625 26.03125 39.671875 28.421875 
Q 36.28125 30.8125 30.421875 30.8125 
L 19.671875 30.8125 
L 19.671875 0 
L 9.8125 0 
L 9.8125 72.90625 
L 32.078125 72.90625 
Q 44.578125 72.90625 50.734375 67.671875 
Q 56.890625 62.453125 56.890625 51.90625 
Q 56.890625 45.015625 53.6875 40.46875 
Q 50.484375 35.9375 44.390625 34.1875 
z
M 19.671875 64.796875 
L 19.671875 38.921875 
L 32.078125 38.921875 
Q 39.203125 38.921875 42.84375 42.21875 
Q 46.484375 45.515625 46.484375 51.90625 
Q 46.484375 58.296875 42.84375 61.546875 
Q 39.203125 64.796875 32.078125 64.796875 
z
" id="DejaVuSans-82"/>
     <path d="M 30.609375 48.390625 
Q 23.390625 48.390625 19.1875 42.75 
Q 14.984375 37.109375 14.984375 27.296875 
Q 14.984375 17.484375 19.15625 11.84375 
Q 23.34375 6.203125 30.609375 6.203125 
Q 37.796875 6.203125 41.984375 11.859375 
Q 46.1875 17.53125 46.1875 27.296875 
Q 46.1875 37.015625 41.984375 42.703125 
Q 37.796875 48.390625 30.609375 48.390625 
z
M 30.609375 56 
Q 42.328125 56 49.015625 48.375 
Q 55.71875 40.765625 55.71875 27.296875 
Q 55.71875 13.875 49.015625 6.21875 
Q 42.328125 -1.421875 30.609375 -1.421875 
Q 18.84375 -1.421875 12.171875 6.21875 
Q 5.515625 13.875 5.515625 27.296875 
Q 5.515625 40.765625 12.171875 48.375 
Q 18.84375 56 30.609375 56 
z
" id="DejaVuSans-111"/>
     <path d="M 4.203125 54.6875 
L 13.1875 54.6875 
L 24.421875 12.015625 
L 35.59375 54.6875 
L 46.1875 54.6875 
L 57.421875 12.015625 
L 68.609375 54.6875 
L 77.59375 54.6875 
L 63.28125 0 
L 52.6875 0 
L 40.921875 44.828125 
L 29.109375 0 
L 18.5 0 
z
" id="DejaVuSans-119"/>
     <path d="M 45.40625 46.390625 
L 45.40625 75.984375 
L 54.390625 75.984375 
L 54.390625 0 
L 45.40625 0 
L 45.40625 8.203125 
Q 42.578125 3.328125 38.25 0.953125 
Q 33.9375 -1.421875 27.875 -1.421875 
Q 17.96875 -1.421875 11.734375 6.484375 
Q 5.515625 14.40625 5.515625 27.296875 
Q 5.515625 40.1875 11.734375 48.09375 
Q 17.96875 56 27.875 56 
Q 33.9375 56 38.25 53.625 
Q 42.578125 51.265625 45.40625 46.390625 
z
M 14.796875 27.296875 
Q 14.796875 17.390625 18.875 11.75 
Q 22.953125 6.109375 30.078125 6.109375 
Q 37.203125 6.109375 41.296875 11.75 
Q 45.40625 17.390625 45.40625 27.296875 
Q 45.40625 37.203125 41.296875 42.84375 
Q 37.203125 48.484375 30.078125 48.484375 
Q 22.953125 48.484375 18.875 42.84375 
Q 14.796875 37.203125 14.796875 27.296875 
z
" id="DejaVuSans-100"/>
     <path d="M 54.890625 54.6875 
L 35.109375 28.078125 
L 55.90625 0 
L 45.3125 0 
L 29.390625 21.484375 
L 13.484375 0 
L 2.875 0 
L 24.125 28.609375 
L 4.6875 54.6875 
L 15.28125 54.6875 
L 29.78125 35.203125 
L 44.28125 54.6875 
z
" id="DejaVuSans-120"/>
     <path d="M 11.71875 12.40625 
L 22.015625 12.40625 
L 22.015625 0 
L 11.71875 0 
z
M 11.71875 51.703125 
L 22.015625 51.703125 
L 22.015625 39.3125 
L 11.71875 39.3125 
z
" id="DejaVuSans-58"/>
     <path d="M 8.5 21.578125 
L 8.5 54.6875 
L 17.484375 54.6875 
L 17.484375 21.921875 
Q 17.484375 14.15625 20.5 10.265625 
Q 23.53125 6.390625 29.59375 6.390625 
Q 36.859375 6.390625 41.078125 11.03125 
Q 45.3125 15.671875 45.3125 23.6875 
L 45.3125 54.6875 
L 54.296875 54.6875 
L 54.296875 0 
L 45.3125 0 
L 45.3125 8.40625 
Q 42.046875 3.421875 37.71875 1 
Q 33.40625 -1.421875 27.6875 -1.421875 
Q 18.265625 -1.421875 13.375 4.4375 
Q 8.5 10.296875 8.5 21.578125 
z
M 31.109375 56 
z
" id="DejaVuSans-117"/>
     <path d="M 19.671875 64.796875 
L 19.671875 8.109375 
L 31.59375 8.109375 
Q 46.6875 8.109375 53.6875 14.9375 
Q 60.6875 21.78125 60.6875 36.53125 
Q 60.6875 51.171875 53.6875 57.984375 
Q 46.6875 64.796875 31.59375 64.796875 
z
M 9.8125 72.90625 
L 30.078125 72.90625 
Q 51.265625 72.90625 61.171875 64.09375 
Q 71.09375 55.28125 71.09375 36.53125 
Q 71.09375 17.671875 61.125 8.828125 
Q 51.171875 0 30.078125 0 
L 9.8125 0 
z
" id="DejaVuSans-68"/>
    </defs>
    <g transform="translate(120.994432 54.48)scale(0.12 -0.12)">
     <use xlink:href="#DejaVuSans-82"/>
     <use x="64.982422" xlink:href="#DejaVuSans-111"/>
     <use x="126.164062" xlink:href="#DejaVuSans-119"/>
     <use x="207.951172" xlink:href="#DejaVuSans-32"/>
     <use x="239.738281" xlink:href="#DejaVuSans-105"/>
     <use x="267.521484" xlink:href="#DejaVuSans-110"/>
     <use x="330.900391" xlink:href="#DejaVuSans-100"/>
     <use x="394.376953" xlink:href="#DejaVuSans-101"/>
     <use x="454.150391" xlink:href="#DejaVuSans-120"/>
     <use x="513.330078" xlink:href="#DejaVuSans-58"/>
     <use x="547.021484" xlink:href="#DejaVuSans-32"/>
     <use x="578.808594" xlink:href="#DejaVuSans-49"/>
     <use x="642.431641" xlink:href="#DejaVuSans-48"/>
     <use x="706.054688" xlink:href="#DejaVuSans-32"/>
     <use x="737.841797" xlink:href="#DejaVuSans-40"/>
     <use x="776.855469" xlink:href="#DejaVuSans-115"/>
     <use x="828.955078" xlink:href="#DejaVuSans-116"/>
     <use x="868.164062" xlink:href="#DejaVuSans-117"/>
     <use x="931.542969" xlink:href="#DejaVuSans-100"/>
     <use x="995.019531" xlink:href="#DejaVuSans-101"/>
     <use x="1056.542969" xlink:href="#DejaVuSans-110"/>
     <use x="1119.921875" xlink:href="#DejaVuSans-116"/>
     <use x="1159.130859" xlink:href="#DejaVuSans-45"/>
     <use x="1195.214844" xlink:href="#DejaVuSans-73"/>
     <use x="1224.707031" xlink:href="#DejaVuSans-68"/>
     <use x="1301.708984" xlink:href="#DejaVuSans-58"/>
     <use x="1335.400391" xlink:href="#DejaVuSans-32"/>
     <use x="1367.1875" xlink:href="#DejaVuSans-49"/>
     <use x="1430.810547" xlink:href="#DejaVuSans-48"/>
     <use x="1494.433594" xlink:href="#DejaVuSans-48"/>
     <use x="1558.056641" xlink:href="#DejaVuSans-41"/>
    </g>
   </g>
  </g>
  <g id="axes_2">
   <g id="patch_7">
    <path d="M 394.363636 236.88 
L 648 236.88 
L 648 60.48 
L 394.363636 60.48 
z
" style="fill:#ffffff;"/>
   </g>
   <g id="matplotlib.axis_3">
    <g id="xtick_7">
     <g id="line2d_14">
      <g>
       <use style="stroke:#000000;stroke-width:0.8;" x="394.363636" xlink:href="#maabde1c674" y="236.88"/>
      </g>
     </g>
     <g id="text_15">
      <!-- 0 -->
      <g transform="translate(391.182386 251.478437)scale(0.1 -0.1)">
       <use xlink:href="#DejaVuSans-48"/>
      </g>
     </g>
    </g>
    <g id="xtick_8">
     <g id="line2d_15">
      <g>
       <use style="stroke:#000000;stroke-width:0.8;" x="445.090909" xlink:href="#maabde1c674" y="236.88"/>
      </g>
     </g>
     <g id="text_16">
      <!-- 20 -->
      <g transform="translate(438.728409 251.478437)scale(0.1 -0.1)">
       <use xlink:href="#DejaVuSans-50"/>
       <use x="63.623047" xlink:href="#DejaVuSans-48"/>
      </g>
     </g>
    </g>
    <g id="xtick_9">
     <g id="line2d_16">
      <g>
       <use style="stroke:#000000;stroke-width:0.8;" x="495.818182" xlink:href="#maabde1c674" y="236.88"/>
      </g>
     </g>
     <g id="text_17">
      <!-- 40 -->
      <g transform="translate(489.455682 251.478437)scale(0.1 -0.1)">
       <use xlink:href="#DejaVuSans-52"/>
       <use x="63.623047" xlink:href="#DejaVuSans-48"/>
      </g>
     </g>
    </g>
    <g id="xtick_10">
     <g id="line2d_17">
      <g>
       <use style="stroke:#000000;stroke-width:0.8;" x="546.545455" xlink:href="#maabde1c674" y="236.88"/>
      </g>
     </g>
     <g id="text_18">
      <!-- 60 -->
      <g transform="translate(540.182955 251.478437)scale(0.1 -0.1)">
       <use xlink:href="#DejaVuSans-54"/>
       <use x="63.623047" xlink:href="#DejaVuSans-48"/>
      </g>
     </g>
    </g>
    <g id="xtick_11">
     <g id="line2d_18">
      <g>
       <use style="stroke:#000000;stroke-width:0.8;" x="597.272727" xlink:href="#maabde1c674" y="236.88"/>
      </g>
     </g>
     <g id="text_19">
      <!-- 80 -->
      <g transform="translate(590.910227 251.478437)scale(0.1 -0.1)">
       <use xlink:href="#DejaVuSans-56"/>
       <use x="63.623047" xlink:href="#DejaVuSans-48"/>
      </g>
     </g>
    </g>
    <g id="xtick_12">
     <g id="line2d_19">
      <g>
       <use style="stroke:#000000;stroke-width:0.8;" x="648" xlink:href="#maabde1c674" y="236.88"/>
      </g>
     </g>
     <g id="text_20">
      <!-- 100 -->
      <g transform="translate(638.45625 251.478437)scale(0.1 -0.1)">
       <use xlink:href="#DejaVuSans-49"/>
       <use x="63.623047" xlink:href="#DejaVuSans-48"/>
       <use x="127.246094" xlink:href="#DejaVuSans-48"/>
      </g>
     </g>
    </g>
   </g>
   <g id="matplotlib.axis_4">
    <g id="ytick_7">
     <g id="line2d_20">
      <g>
       <use style="stroke:#000000;stroke-width:0.8;" x="394.363636" xlink:href="#m373396ee6a" y="236.88"/>
      </g>
     </g>
     <g id="text_21">
      <!-- 0 -->
      <g transform="translate(381.001136 240.679219)scale(0.1 -0.1)">
       <use xlink:href="#DejaVuSans-48"/>
      </g>
     </g>
    </g>
    <g id="ytick_8">
     <g id="line2d_21">
      <g>
       <use style="stroke:#000000;stroke-width:0.8;" x="394.363636" xlink:href="#m373396ee6a" y="202.291765"/>
      </g>
     </g>
     <g id="text_22">
      <!-- 50 -->
      <g transform="translate(374.638636 206.090983)scale(0.1 -0.1)">
       <use xlink:href="#DejaVuSans-53"/>
       <use x="63.623047" xlink:href="#DejaVuSans-48"/>
      </g>
     </g>
    </g>
    <g id="ytick_9">
     <g id="line2d_22">
      <g>
       <use style="stroke:#000000;stroke-width:0.8;" x="394.363636" xlink:href="#m373396ee6a" y="167.703529"/>
      </g>
     </g>
     <g id="text_23">
      <!-- 100 -->
      <g transform="translate(368.276136 171.502748)scale(0.1 -0.1)">
       <use xlink:href="#DejaVuSans-49"/>
       <use x="63.623047" xlink:href="#DejaVuSans-48"/>
       <use x="127.246094" xlink:href="#DejaVuSans-48"/>
      </g>
     </g>
    </g>
    <g id="ytick_10">
     <g id="line2d_23">
      <g>
       <use style="stroke:#000000;stroke-width:0.8;" x="394.363636" xlink:href="#m373396ee6a" y="133.115294"/>
      </g>
     </g>
     <g id="text_24">
      <!-- 150 -->
      <g transform="translate(368.276136 136.914513)scale(0.1 -0.1)">
       <use xlink:href="#DejaVuSans-49"/>
       <use x="63.623047" xlink:href="#DejaVuSans-53"/>
       <use x="127.246094" xlink:href="#DejaVuSans-48"/>
      </g>
     </g>
    </g>
    <g id="ytick_11">
     <g id="line2d_24">
      <g>
       <use style="stroke:#000000;stroke-width:0.8;" x="394.363636" xlink:href="#m373396ee6a" y="98.527059"/>
      </g>
     </g>
     <g id="text_25">
      <!-- 200 -->
      <g transform="translate(368.276136 102.326278)scale(0.1 -0.1)">
       <use xlink:href="#DejaVuSans-50"/>
       <use x="63.623047" xlink:href="#DejaVuSans-48"/>
       <use x="127.246094" xlink:href="#DejaVuSans-48"/>
      </g>
     </g>
    </g>
    <g id="ytick_12">
     <g id="line2d_25">
      <g>
       <use style="stroke:#000000;stroke-width:0.8;" x="394.363636" xlink:href="#m373396ee6a" y="63.938824"/>
      </g>
     </g>
     <g id="text_26">
      <!-- 250 -->
      <g transform="translate(368.276136 67.738042)scale(0.1 -0.1)">
       <use xlink:href="#DejaVuSans-50"/>
       <use x="63.623047" xlink:href="#DejaVuSans-53"/>
       <use x="127.246094" xlink:href="#DejaVuSans-48"/>
      </g>
     </g>
    </g>
   </g>
   <g id="line2d_26">
    <path clip-path="url(#pa52bbfdc2f)" d="M 394.363636 60.48 
L 396.9 61.171765 
L 399.436364 61.171765 
L 401.972727 61.171765 
L 404.509091 61.171765 
L 407.045455 61.863529 
L 409.581818 62.555294 
L 412.118182 65.322353 
L 414.654545 70.164706 
L 417.190909 78.465882 
L 419.727273 90.225882 
L 422.263636 106.828235 
L 424.8 126.197647 
L 427.336364 145.567059 
L 429.872727 162.169412 
L 432.409091 171.854118 
L 434.945455 172.545882 
L 437.481818 164.936471 
L 440.018182 149.717647 
L 442.554545 131.04 
L 445.090909 110.978824 
L 447.627273 93.684706 
L 450.163636 80.541176 
L 452.7 71.548235 
L 455.236364 66.014118 
L 457.772727 63.247059 
L 460.309091 61.863529 
L 462.845455 61.863529 
L 465.381818 61.863529 
L 467.918182 63.247059 
L 470.454545 66.014118 
L 472.990909 71.548235 
L 475.527273 81.232941 
L 478.063636 94.376471 
L 480.6 111.670588 
L 483.136364 131.731765 
L 485.672727 151.101176 
L 488.209091 166.32 
L 490.745455 174.621176 
L 493.281818 173.929412 
L 495.818182 164.244706 
L 498.354545 148.334118 
L 500.890909 128.272941 
L 503.427273 108.903529 
L 505.963636 92.301176 
L 508.5 79.157647 
L 511.036364 70.856471 
L 513.572727 66.014118 
L 516.109091 63.247059 
L 518.645455 61.863529 
L 521.181818 61.863529 
L 523.718182 61.863529 
L 526.254545 63.247059 
L 528.790909 66.705882 
L 531.327273 72.24 
L 533.863636 81.924706 
L 536.4 95.76 
L 538.936364 113.054118 
L 541.472727 133.115294 
L 544.009091 152.484706 
L 546.545455 167.703529 
L 549.081818 174.621176 
L 551.618182 173.237647 
L 554.154545 163.552941 
L 556.690909 146.950588 
L 559.227273 128.964706 
L 561.763636 111.670588 
L 564.3 100.602353 
L 566.836364 96.451765 
L 569.372727 100.602353 
L 571.909091 112.362353 
L 574.445455 128.964706 
L 576.981818 147.642353 
L 579.518182 163.552941 
L 582.054545 173.237647 
L 584.590909 174.621176 
L 587.127273 167.011765 
L 589.663636 152.484706 
L 592.2 133.115294 
L 594.736364 113.054118 
L 597.272727 95.76 
L 599.809091 81.924706 
L 602.345455 72.24 
L 604.881818 66.705882 
L 607.418182 63.247059 
L 609.954545 61.863529 
L 612.490909 61.863529 
L 615.027273 61.863529 
L 617.563636 63.247059 
L 620.1 66.014118 
L 622.636364 70.856471 
L 625.172727 79.849412 
L 627.709091 92.301176 
L 630.245455 108.903529 
L 632.781818 128.272941 
L 635.318182 148.334118 
L 637.854545 164.244706 
L 640.390909 173.929412 
L 642.927273 174.621176 
L 645.463636 166.32 
L 648 151.101176 
L 650.536364 132.423529 
L 653.072727 114.437647 
L 655.609091 99.910588 
L 658.145455 91.609412 
" style="fill:none;stroke:#008000;stroke-dasharray:5.55,2.4;stroke-dashoffset:0;stroke-width:1.5;"/>
   </g>
   <g id="patch_8">
    <path d="M 394.363636 236.88 
L 394.363636 60.48 
" style="fill:none;stroke:#000000;stroke-linecap:square;stroke-linejoin:miter;stroke-width:0.8;"/>
   </g>
   <g id="patch_9">
    <path d="M 648 236.88 
L 648 60.48 
" style="fill:none;stroke:#000000;stroke-linecap:square;stroke-linejoin:miter;stroke-width:0.8;"/>
   </g>
   <g id="patch_10">
    <path d="M 394.363636 236.88 
L 648 236.88 
" style="fill:none;stroke:#000000;stroke-linecap:square;stroke-linejoin:miter;stroke-width:0.8;"/>
   </g>
   <g id="patch_11">
    <path d="M 394.363636 60.48 
L 648 60.48 
" style="fill:none;stroke:#000000;stroke-linecap:square;stroke-linejoin:miter;stroke-width:0.8;"/>
   </g>
   <g id="text_27">
    <!-- Row index: 20 (student-ID: 100) -->
    <g transform="translate(425.358068 54.48)scale(0.12 -0.12)">
     <use xlink:href="#DejaVuSans-82"/>
     <use x="64.982422" xlink:href="#DejaVuSans-111"/>
     <use x="126.164062" xlink:href="#DejaVuSans-119"/>
     <use x="207.951172" xlink:href="#DejaVuSans-32"/>
     <use x="239.738281" xlink:href="#DejaVuSans-105"/>
     <use x="267.521484" xlink:href="#DejaVuSans-110"/>
     <use x="330.900391" xlink:href="#DejaVuSans-100"/>
     <use x="394.376953" xlink:href="#DejaVuSans-101"/>
     <use x="454.150391" xlink:href="#DejaVuSans-120"/>
     <use x="513.330078" xlink:href="#DejaVuSans-58"/>
     <use x="547.021484" xlink:href="#DejaVuSans-32"/>
     <use x="578.808594" xlink:href="#DejaVuSans-50"/>
     <use x="642.431641" xlink:href="#DejaVuSans-48"/>
     <use x="706.054688" xlink:href="#DejaVuSans-32"/>
     <use x="737.841797" xlink:href="#DejaVuSans-40"/>
     <use x="776.855469" xlink:href="#DejaVuSans-115"/>
     <use x="828.955078" xlink:href="#DejaVuSans-116"/>
     <use x="868.164062" xlink:href="#DejaVuSans-117"/>
     <use x="931.542969" xlink:href="#DejaVuSans-100"/>
     <use x="995.019531" xlink:href="#DejaVuSans-101"/>
     <use x="1056.542969" xlink:href="#DejaVuSans-110"/>
     <use x="1119.921875" xlink:href="#DejaVuSans-116"/>
     <use x="1159.130859" xlink:href="#DejaVuSans-45"/>
     <use x="1195.214844" xlink:href="#DejaVuSans-73"/>
     <use x="1224.707031" xlink:href="#DejaVuSans-68"/>
     <use x="1301.708984" xlink:href="#DejaVuSans-58"/>
     <use x="1335.400391" xlink:href="#DejaVuSans-32"/>
     <use x="1367.1875" xlink:href="#DejaVuSans-49"/>
     <use x="1430.810547" xlink:href="#DejaVuSans-48"/>
     <use x="1494.433594" xlink:href="#DejaVuSans-48"/>
     <use x="1558.056641" xlink:href="#DejaVuSans-41"/>
    </g>
   </g>
  </g>
  <g id="axes_3">
   <g id="patch_12">
    <path d="M 90 448.56 
L 343.636364 448.56 
L 343.636364 272.16 
L 90 272.16 
z
" style="fill:#ffffff;"/>
   </g>
   <g id="matplotlib.axis_5">
    <g id="xtick_13">
     <g id="line2d_27">
      <g>
       <use style="stroke:#000000;stroke-width:0.8;" x="90" xlink:href="#maabde1c674" y="448.56"/>
      </g>
     </g>
     <g id="text_28">
      <!-- 0 -->
      <g transform="translate(86.81875 463.158437)scale(0.1 -0.1)">
       <use xlink:href="#DejaVuSans-48"/>
      </g>
     </g>
    </g>
    <g id="xtick_14">
     <g id="line2d_28">
      <g>
       <use style="stroke:#000000;stroke-width:0.8;" x="140.727273" xlink:href="#maabde1c674" y="448.56"/>
      </g>
     </g>
     <g id="text_29">
      <!-- 20 -->
      <g transform="translate(134.364773 463.158437)scale(0.1 -0.1)">
       <use xlink:href="#DejaVuSans-50"/>
       <use x="63.623047" xlink:href="#DejaVuSans-48"/>
      </g>
     </g>
    </g>
    <g id="xtick_15">
     <g id="line2d_29">
      <g>
       <use style="stroke:#000000;stroke-width:0.8;" x="191.454545" xlink:href="#maabde1c674" y="448.56"/>
      </g>
     </g>
     <g id="text_30">
      <!-- 40 -->
      <g transform="translate(185.092045 463.158437)scale(0.1 -0.1)">
       <use xlink:href="#DejaVuSans-52"/>
       <use x="63.623047" xlink:href="#DejaVuSans-48"/>
      </g>
     </g>
    </g>
    <g id="xtick_16">
     <g id="line2d_30">
      <g>
       <use style="stroke:#000000;stroke-width:0.8;" x="242.181818" xlink:href="#maabde1c674" y="448.56"/>
      </g>
     </g>
     <g id="text_31">
      <!-- 60 -->
      <g transform="translate(235.819318 463.158437)scale(0.1 -0.1)">
       <use xlink:href="#DejaVuSans-54"/>
       <use x="63.623047" xlink:href="#DejaVuSans-48"/>
      </g>
     </g>
    </g>
    <g id="xtick_17">
     <g id="line2d_31">
      <g>
       <use style="stroke:#000000;stroke-width:0.8;" x="292.909091" xlink:href="#maabde1c674" y="448.56"/>
      </g>
     </g>
     <g id="text_32">
      <!-- 80 -->
      <g transform="translate(286.546591 463.158437)scale(0.1 -0.1)">
       <use xlink:href="#DejaVuSans-56"/>
       <use x="63.623047" xlink:href="#DejaVuSans-48"/>
      </g>
     </g>
    </g>
    <g id="xtick_18">
     <g id="line2d_32">
      <g>
       <use style="stroke:#000000;stroke-width:0.8;" x="343.636364" xlink:href="#maabde1c674" y="448.56"/>
      </g>
     </g>
     <g id="text_33">
      <!-- 100 -->
      <g transform="translate(334.092614 463.158437)scale(0.1 -0.1)">
       <use xlink:href="#DejaVuSans-49"/>
       <use x="63.623047" xlink:href="#DejaVuSans-48"/>
       <use x="127.246094" xlink:href="#DejaVuSans-48"/>
      </g>
     </g>
    </g>
    <g id="text_34">
     <!-- Horizontal dimension (column index) -->
     <defs>
      <path d="M 9.8125 72.90625 
L 19.671875 72.90625 
L 19.671875 43.015625 
L 55.515625 43.015625 
L 55.515625 72.90625 
L 65.375 72.90625 
L 65.375 0 
L 55.515625 0 
L 55.515625 34.71875 
L 19.671875 34.71875 
L 19.671875 0 
L 9.8125 0 
z
" id="DejaVuSans-72"/>
      <path d="M 41.109375 46.296875 
Q 39.59375 47.171875 37.8125 47.578125 
Q 36.03125 48 33.890625 48 
Q 26.265625 48 22.1875 43.046875 
Q 18.109375 38.09375 18.109375 28.8125 
L 18.109375 0 
L 9.078125 0 
L 9.078125 54.6875 
L 18.109375 54.6875 
L 18.109375 46.1875 
Q 20.953125 51.171875 25.484375 53.578125 
Q 30.03125 56 36.53125 56 
Q 37.453125 56 38.578125 55.875 
Q 39.703125 55.765625 41.0625 55.515625 
z
" id="DejaVuSans-114"/>
      <path d="M 5.515625 54.6875 
L 48.1875 54.6875 
L 48.1875 46.484375 
L 14.40625 7.171875 
L 48.1875 7.171875 
L 48.1875 0 
L 4.296875 0 
L 4.296875 8.203125 
L 38.09375 47.515625 
L 5.515625 47.515625 
z
" id="DejaVuSans-122"/>
      <path d="M 34.28125 27.484375 
Q 23.390625 27.484375 19.1875 25 
Q 14.984375 22.515625 14.984375 16.5 
Q 14.984375 11.71875 18.140625 8.90625 
Q 21.296875 6.109375 26.703125 6.109375 
Q 34.1875 6.109375 38.703125 11.40625 
Q 43.21875 16.703125 43.21875 25.484375 
L 43.21875 27.484375 
z
M 52.203125 31.203125 
L 52.203125 0 
L 43.21875 0 
L 43.21875 8.296875 
Q 40.140625 3.328125 35.546875 0.953125 
Q 30.953125 -1.421875 24.3125 -1.421875 
Q 15.921875 -1.421875 10.953125 3.296875 
Q 6 8.015625 6 15.921875 
Q 6 25.140625 12.171875 29.828125 
Q 18.359375 34.515625 30.609375 34.515625 
L 43.21875 34.515625 
L 43.21875 35.40625 
Q 43.21875 41.609375 39.140625 45 
Q 35.0625 48.390625 27.6875 48.390625 
Q 23 48.390625 18.546875 47.265625 
Q 14.109375 46.140625 10.015625 43.890625 
L 10.015625 52.203125 
Q 14.9375 54.109375 19.578125 55.046875 
Q 24.21875 56 28.609375 56 
Q 40.484375 56 46.34375 49.84375 
Q 52.203125 43.703125 52.203125 31.203125 
z
" id="DejaVuSans-97"/>
      <path d="M 9.421875 75.984375 
L 18.40625 75.984375 
L 18.40625 0 
L 9.421875 0 
z
" id="DejaVuSans-108"/>
      <path d="M 52 44.1875 
Q 55.375 50.25 60.0625 53.125 
Q 64.75 56 71.09375 56 
Q 79.640625 56 84.28125 50.015625 
Q 88.921875 44.046875 88.921875 33.015625 
L 88.921875 0 
L 79.890625 0 
L 79.890625 32.71875 
Q 79.890625 40.578125 77.09375 44.375 
Q 74.3125 48.1875 68.609375 48.1875 
Q 61.625 48.1875 57.5625 43.546875 
Q 53.515625 38.921875 53.515625 30.90625 
L 53.515625 0 
L 44.484375 0 
L 44.484375 32.71875 
Q 44.484375 40.625 41.703125 44.40625 
Q 38.921875 48.1875 33.109375 48.1875 
Q 26.21875 48.1875 22.15625 43.53125 
Q 18.109375 38.875 18.109375 30.90625 
L 18.109375 0 
L 9.078125 0 
L 9.078125 54.6875 
L 18.109375 54.6875 
L 18.109375 46.1875 
Q 21.1875 51.21875 25.484375 53.609375 
Q 29.78125 56 35.6875 56 
Q 41.65625 56 45.828125 52.96875 
Q 50 49.953125 52 44.1875 
z
" id="DejaVuSans-109"/>
      <path d="M 48.78125 52.59375 
L 48.78125 44.1875 
Q 44.96875 46.296875 41.140625 47.34375 
Q 37.3125 48.390625 33.40625 48.390625 
Q 24.65625 48.390625 19.8125 42.84375 
Q 14.984375 37.3125 14.984375 27.296875 
Q 14.984375 17.28125 19.8125 11.734375 
Q 24.65625 6.203125 33.40625 6.203125 
Q 37.3125 6.203125 41.140625 7.25 
Q 44.96875 8.296875 48.78125 10.40625 
L 48.78125 2.09375 
Q 45.015625 0.34375 40.984375 -0.53125 
Q 36.96875 -1.421875 32.421875 -1.421875 
Q 20.0625 -1.421875 12.78125 6.34375 
Q 5.515625 14.109375 5.515625 27.296875 
Q 5.515625 40.671875 12.859375 48.328125 
Q 20.21875 56 33.015625 56 
Q 37.15625 56 41.109375 55.140625 
Q 45.0625 54.296875 48.78125 52.59375 
z
" id="DejaVuSans-99"/>
     </defs>
     <g transform="translate(124.633026 476.836563)scale(0.1 -0.1)">
      <use xlink:href="#DejaVuSans-72"/>
      <use x="75.195312" xlink:href="#DejaVuSans-111"/>
      <use x="136.376953" xlink:href="#DejaVuSans-114"/>
      <use x="177.490234" xlink:href="#DejaVuSans-105"/>
      <use x="205.273438" xlink:href="#DejaVuSans-122"/>
      <use x="257.763672" xlink:href="#DejaVuSans-111"/>
      <use x="318.945312" xlink:href="#DejaVuSans-110"/>
      <use x="382.324219" xlink:href="#DejaVuSans-116"/>
      <use x="421.533203" xlink:href="#DejaVuSans-97"/>
      <use x="482.8125" xlink:href="#DejaVuSans-108"/>
      <use x="510.595703" xlink:href="#DejaVuSans-32"/>
      <use x="542.382812" xlink:href="#DejaVuSans-100"/>
      <use x="605.859375" xlink:href="#DejaVuSans-105"/>
      <use x="633.642578" xlink:href="#DejaVuSans-109"/>
      <use x="731.054688" xlink:href="#DejaVuSans-101"/>
      <use x="792.578125" xlink:href="#DejaVuSans-110"/>
      <use x="855.957031" xlink:href="#DejaVuSans-115"/>
      <use x="908.056641" xlink:href="#DejaVuSans-105"/>
      <use x="935.839844" xlink:href="#DejaVuSans-111"/>
      <use x="997.021484" xlink:href="#DejaVuSans-110"/>
      <use x="1060.400391" xlink:href="#DejaVuSans-32"/>
      <use x="1092.1875" xlink:href="#DejaVuSans-40"/>
      <use x="1131.201172" xlink:href="#DejaVuSans-99"/>
      <use x="1186.181641" xlink:href="#DejaVuSans-111"/>
      <use x="1247.363281" xlink:href="#DejaVuSans-108"/>
      <use x="1275.146484" xlink:href="#DejaVuSans-117"/>
      <use x="1338.525391" xlink:href="#DejaVuSans-109"/>
      <use x="1435.9375" xlink:href="#DejaVuSans-110"/>
      <use x="1499.316406" xlink:href="#DejaVuSans-32"/>
      <use x="1531.103516" xlink:href="#DejaVuSans-105"/>
      <use x="1558.886719" xlink:href="#DejaVuSans-110"/>
      <use x="1622.265625" xlink:href="#DejaVuSans-100"/>
      <use x="1685.742188" xlink:href="#DejaVuSans-101"/>
      <use x="1745.515625" xlink:href="#DejaVuSans-120"/>
      <use x="1804.695312" xlink:href="#DejaVuSans-41"/>
     </g>
    </g>
   </g>
   <g id="matplotlib.axis_6">
    <g id="ytick_13">
     <g id="line2d_33">
      <g>
       <use style="stroke:#000000;stroke-width:0.8;" x="90" xlink:href="#m373396ee6a" y="448.56"/>
      </g>
     </g>
     <g id="text_35">
      <!-- 0 -->
      <g transform="translate(76.6375 452.359219)scale(0.1 -0.1)">
       <use xlink:href="#DejaVuSans-48"/>
      </g>
     </g>
    </g>
    <g id="ytick_14">
     <g id="line2d_34">
      <g>
       <use style="stroke:#000000;stroke-width:0.8;" x="90" xlink:href="#m373396ee6a" y="413.971765"/>
      </g>
     </g>
     <g id="text_36">
      <!-- 50 -->
      <g transform="translate(70.275 417.770983)scale(0.1 -0.1)">
       <use xlink:href="#DejaVuSans-53"/>
       <use x="63.623047" xlink:href="#DejaVuSans-48"/>
      </g>
     </g>
    </g>
    <g id="ytick_15">
     <g id="line2d_35">
      <g>
       <use style="stroke:#000000;stroke-width:0.8;" x="90" xlink:href="#m373396ee6a" y="379.383529"/>
      </g>
     </g>
     <g id="text_37">
      <!-- 100 -->
      <g transform="translate(63.9125 383.182748)scale(0.1 -0.1)">
       <use xlink:href="#DejaVuSans-49"/>
       <use x="63.623047" xlink:href="#DejaVuSans-48"/>
       <use x="127.246094" xlink:href="#DejaVuSans-48"/>
      </g>
     </g>
    </g>
    <g id="ytick_16">
     <g id="line2d_36">
      <g>
       <use style="stroke:#000000;stroke-width:0.8;" x="90" xlink:href="#m373396ee6a" y="344.795294"/>
      </g>
     </g>
     <g id="text_38">
      <!-- 150 -->
      <g transform="translate(63.9125 348.594513)scale(0.1 -0.1)">
       <use xlink:href="#DejaVuSans-49"/>
       <use x="63.623047" xlink:href="#DejaVuSans-53"/>
       <use x="127.246094" xlink:href="#DejaVuSans-48"/>
      </g>
     </g>
    </g>
    <g id="ytick_17">
     <g id="line2d_37">
      <g>
       <use style="stroke:#000000;stroke-width:0.8;" x="90" xlink:href="#m373396ee6a" y="310.207059"/>
      </g>
     </g>
     <g id="text_39">
      <!-- 200 -->
      <g transform="translate(63.9125 314.006278)scale(0.1 -0.1)">
       <use xlink:href="#DejaVuSans-50"/>
       <use x="63.623047" xlink:href="#DejaVuSans-48"/>
       <use x="127.246094" xlink:href="#DejaVuSans-48"/>
      </g>
     </g>
    </g>
    <g id="ytick_18">
     <g id="line2d_38">
      <g>
       <use style="stroke:#000000;stroke-width:0.8;" x="90" xlink:href="#m373396ee6a" y="275.618824"/>
      </g>
     </g>
     <g id="text_40">
      <!-- 250 -->
      <g transform="translate(63.9125 279.418042)scale(0.1 -0.1)">
       <use xlink:href="#DejaVuSans-50"/>
       <use x="63.623047" xlink:href="#DejaVuSans-53"/>
       <use x="127.246094" xlink:href="#DejaVuSans-48"/>
      </g>
     </g>
    </g>
    <g id="text_41">
     <!-- Intensity (8-bit) -->
     <g transform="translate(57.832812 399.121719)rotate(-90)scale(0.1 -0.1)">
      <use xlink:href="#DejaVuSans-73"/>
      <use x="29.492188" xlink:href="#DejaVuSans-110"/>
      <use x="92.871094" xlink:href="#DejaVuSans-116"/>
      <use x="132.080078" xlink:href="#DejaVuSans-101"/>
      <use x="193.603516" xlink:href="#DejaVuSans-110"/>
      <use x="256.982422" xlink:href="#DejaVuSans-115"/>
      <use x="309.082031" xlink:href="#DejaVuSans-105"/>
      <use x="336.865234" xlink:href="#DejaVuSans-116"/>
      <use x="376.074219" xlink:href="#DejaVuSans-121"/>
      <use x="435.253906" xlink:href="#DejaVuSans-32"/>
      <use x="467.041016" xlink:href="#DejaVuSans-40"/>
      <use x="506.054688" xlink:href="#DejaVuSans-56"/>
      <use x="569.677734" xlink:href="#DejaVuSans-45"/>
      <use x="605.761719" xlink:href="#DejaVuSans-98"/>
      <use x="669.238281" xlink:href="#DejaVuSans-105"/>
      <use x="697.021484" xlink:href="#DejaVuSans-116"/>
      <use x="736.230469" xlink:href="#DejaVuSans-41"/>
     </g>
    </g>
   </g>
   <g id="line2d_39">
    <path clip-path="url(#p6a4b3eb167)" d="M 90 273.543529 
L 92.536364 274.235294 
L 95.072727 274.235294 
L 97.609091 274.927059 
L 100.145455 276.310588 
L 102.681818 277.694118 
L 105.218182 279.077647 
L 107.754545 282.536471 
L 110.290909 287.378824 
L 112.827273 295.68 
L 115.363636 307.44 
L 117.9 323.350588 
L 120.436364 341.336471 
L 122.972727 360.705882 
L 125.509091 375.924706 
L 128.045455 385.609412 
L 130.581818 386.992941 
L 133.118182 379.383529 
L 135.654545 364.856471 
L 138.190909 346.178824 
L 140.727273 327.501176 
L 143.263636 310.898824 
L 145.8 297.755294 
L 148.336364 288.762353 
L 150.872727 283.228235 
L 153.409091 279.769412 
L 155.945455 277.694118 
L 158.481818 276.310588 
L 161.018182 275.618824 
L 163.554545 275.618824 
L 166.090909 275.618824 
L 168.627273 277.694118 
L 171.163636 282.536471 
L 173.7 289.454118 
L 176.236364 301.214118 
L 178.772727 316.432941 
L 181.309091 334.418824 
L 183.845455 352.404706 
L 186.381818 369.007059 
L 188.918182 380.075294 
L 191.454545 383.534118 
L 193.990909 379.383529 
L 196.527273 367.623529 
L 199.063636 351.712941 
L 201.6 334.418824 
L 204.136364 317.816471 
L 206.672727 303.981176 
L 209.209091 293.604706 
L 211.745455 287.378824 
L 214.281818 283.228235 
L 216.818182 282.536471 
L 219.354545 283.92 
L 221.890909 288.070588 
L 224.427273 295.68 
L 226.963636 307.44 
L 229.5 321.967059 
L 232.036364 338.569412 
L 234.572727 355.863529 
L 237.109091 371.082353 
L 239.645455 380.767059 
L 242.181818 383.534118 
L 244.718182 378 
L 247.254545 365.548235 
L 249.790909 348.254118 
L 252.327273 329.576471 
L 254.863636 312.974118 
L 257.4 299.138824 
L 259.936364 290.837647 
L 262.472727 288.070588 
L 265.009091 290.837647 
L 267.545455 299.138824 
L 270.081818 312.974118 
L 272.618182 329.576471 
L 275.154545 348.254118 
L 277.690909 365.548235 
L 280.227273 378 
L 282.763636 383.534118 
L 285.3 380.767059 
L 287.836364 371.082353 
L 290.372727 355.863529 
L 292.909091 338.569412 
L 295.445455 321.967059 
L 297.981818 307.44 
L 300.518182 295.68 
L 303.054545 288.070588 
L 305.590909 283.92 
L 308.127273 282.536471 
L 310.663636 283.228235 
L 313.2 287.378824 
L 315.736364 293.604706 
L 318.272727 303.981176 
L 320.809091 317.816471 
L 323.345455 334.418824 
L 325.881818 351.712941 
L 328.418182 367.623529 
L 330.954545 379.383529 
L 333.490909 383.534118 
L 336.027273 380.075294 
L 338.563636 369.007059 
L 341.1 352.404706 
L 343.636364 334.418824 
L 346.172727 316.432941 
L 348.709091 301.905882 
L 351.245455 291.529412 
L 353.781818 286.687059 
" style="fill:none;stroke:#ff0000;stroke-dasharray:9.6,2.4,1.5,2.4;stroke-dashoffset:0;stroke-width:1.5;"/>
   </g>
   <g id="patch_13">
    <path d="M 90 448.56 
L 90 272.16 
" style="fill:none;stroke:#000000;stroke-linecap:square;stroke-linejoin:miter;stroke-width:0.8;"/>
   </g>
   <g id="patch_14">
    <path d="M 343.636364 448.56 
L 343.636364 272.16 
" style="fill:none;stroke:#000000;stroke-linecap:square;stroke-linejoin:miter;stroke-width:0.8;"/>
   </g>
   <g id="patch_15">
    <path d="M 90 448.56 
L 343.636364 448.56 
" style="fill:none;stroke:#000000;stroke-linecap:square;stroke-linejoin:miter;stroke-width:0.8;"/>
   </g>
   <g id="patch_16">
    <path d="M 90 272.16 
L 343.636364 272.16 
" style="fill:none;stroke:#000000;stroke-linecap:square;stroke-linejoin:miter;stroke-width:0.8;"/>
   </g>
   <g id="text_42">
    <!-- Row index: 30 (student-ID: 100) -->
    <defs>
     <path d="M 40.578125 39.3125 
Q 47.65625 37.796875 51.625 33 
Q 55.609375 28.21875 55.609375 21.1875 
Q 55.609375 10.40625 48.1875 4.484375 
Q 40.765625 -1.421875 27.09375 -1.421875 
Q 22.515625 -1.421875 17.65625 -0.515625 
Q 12.796875 0.390625 7.625 2.203125 
L 7.625 11.71875 
Q 11.71875 9.328125 16.59375 8.109375 
Q 21.484375 6.890625 26.8125 6.890625 
Q 36.078125 6.890625 40.9375 10.546875 
Q 45.796875 14.203125 45.796875 21.1875 
Q 45.796875 27.640625 41.28125 31.265625 
Q 36.765625 34.90625 28.71875 34.90625 
L 20.21875 34.90625 
L 20.21875 43.015625 
L 29.109375 43.015625 
Q 36.375 43.015625 40.234375 45.921875 
Q 44.09375 48.828125 44.09375 54.296875 
Q 44.09375 59.90625 40.109375 62.90625 
Q 36.140625 65.921875 28.71875 65.921875 
Q 24.65625 65.921875 20.015625 65.03125 
Q 15.375 64.15625 9.8125 62.3125 
L 9.8125 71.09375 
Q 15.4375 72.65625 20.34375 73.4375 
Q 25.25 74.21875 29.59375 74.21875 
Q 40.828125 74.21875 47.359375 69.109375 
Q 53.90625 64.015625 53.90625 55.328125 
Q 53.90625 49.265625 50.4375 45.09375 
Q 46.96875 40.921875 40.578125 39.3125 
z
" id="DejaVuSans-51"/>
    </defs>
    <g transform="translate(120.994432 266.16)scale(0.12 -0.12)">
     <use xlink:href="#DejaVuSans-82"/>
     <use x="64.982422" xlink:href="#DejaVuSans-111"/>
     <use x="126.164062" xlink:href="#DejaVuSans-119"/>
     <use x="207.951172" xlink:href="#DejaVuSans-32"/>
     <use x="239.738281" xlink:href="#DejaVuSans-105"/>
     <use x="267.521484" xlink:href="#DejaVuSans-110"/>
     <use x="330.900391" xlink:href="#DejaVuSans-100"/>
     <use x="394.376953" xlink:href="#DejaVuSans-101"/>
     <use x="454.150391" xlink:href="#DejaVuSans-120"/>
     <use x="513.330078" xlink:href="#DejaVuSans-58"/>
     <use x="547.021484" xlink:href="#DejaVuSans-32"/>
     <use x="578.808594" xlink:href="#DejaVuSans-51"/>
     <use x="642.431641" xlink:href="#DejaVuSans-48"/>
     <use x="706.054688" xlink:href="#DejaVuSans-32"/>
     <use x="737.841797" xlink:href="#DejaVuSans-40"/>
     <use x="776.855469" xlink:href="#DejaVuSans-115"/>
     <use x="828.955078" xlink:href="#DejaVuSans-116"/>
     <use x="868.164062" xlink:href="#DejaVuSans-117"/>
     <use x="931.542969" xlink:href="#DejaVuSans-100"/>
     <use x="995.019531" xlink:href="#DejaVuSans-101"/>
     <use x="1056.542969" xlink:href="#DejaVuSans-110"/>
     <use x="1119.921875" xlink:href="#DejaVuSans-116"/>
     <use x="1159.130859" xlink:href="#DejaVuSans-45"/>
     <use x="1195.214844" xlink:href="#DejaVuSans-73"/>
     <use x="1224.707031" xlink:href="#DejaVuSans-68"/>
     <use x="1301.708984" xlink:href="#DejaVuSans-58"/>
     <use x="1335.400391" xlink:href="#DejaVuSans-32"/>
     <use x="1367.1875" xlink:href="#DejaVuSans-49"/>
     <use x="1430.810547" xlink:href="#DejaVuSans-48"/>
     <use x="1494.433594" xlink:href="#DejaVuSans-48"/>
     <use x="1558.056641" xlink:href="#DejaVuSans-41"/>
    </g>
   </g>
  </g>
  <g id="axes_4">
   <g id="patch_17">
    <path d="M 394.363636 448.56 
L 648 448.56 
L 648 272.16 
L 394.363636 272.16 
z
" style="fill:#ffffff;"/>
   </g>
   <g id="matplotlib.axis_7">
    <g id="xtick_19">
     <g id="line2d_40">
      <g>
       <use style="stroke:#000000;stroke-width:0.8;" x="394.363636" xlink:href="#maabde1c674" y="448.56"/>
      </g>
     </g>
     <g id="text_43">
      <!-- 0 -->
      <g transform="translate(391.182386 463.158437)scale(0.1 -0.1)">
       <use xlink:href="#DejaVuSans-48"/>
      </g>
     </g>
    </g>
    <g id="xtick_20">
     <g id="line2d_41">
      <g>
       <use style="stroke:#000000;stroke-width:0.8;" x="445.090909" xlink:href="#maabde1c674" y="448.56"/>
      </g>
     </g>
     <g id="text_44">
      <!-- 20 -->
      <g transform="translate(438.728409 463.158437)scale(0.1 -0.1)">
       <use xlink:href="#DejaVuSans-50"/>
       <use x="63.623047" xlink:href="#DejaVuSans-48"/>
      </g>
     </g>
    </g>
    <g id="xtick_21">
     <g id="line2d_42">
      <g>
       <use style="stroke:#000000;stroke-width:0.8;" x="495.818182" xlink:href="#maabde1c674" y="448.56"/>
      </g>
     </g>
     <g id="text_45">
      <!-- 40 -->
      <g transform="translate(489.455682 463.158437)scale(0.1 -0.1)">
       <use xlink:href="#DejaVuSans-52"/>
       <use x="63.623047" xlink:href="#DejaVuSans-48"/>
      </g>
     </g>
    </g>
    <g id="xtick_22">
     <g id="line2d_43">
      <g>
       <use style="stroke:#000000;stroke-width:0.8;" x="546.545455" xlink:href="#maabde1c674" y="448.56"/>
      </g>
     </g>
     <g id="text_46">
      <!-- 60 -->
      <g transform="translate(540.182955 463.158437)scale(0.1 -0.1)">
       <use xlink:href="#DejaVuSans-54"/>
       <use x="63.623047" xlink:href="#DejaVuSans-48"/>
      </g>
     </g>
    </g>
    <g id="xtick_23">
     <g id="line2d_44">
      <g>
       <use style="stroke:#000000;stroke-width:0.8;" x="597.272727" xlink:href="#maabde1c674" y="448.56"/>
      </g>
     </g>
     <g id="text_47">
      <!-- 80 -->
      <g transform="translate(590.910227 463.158437)scale(0.1 -0.1)">
       <use xlink:href="#DejaVuSans-56"/>
       <use x="63.623047" xlink:href="#DejaVuSans-48"/>
      </g>
     </g>
    </g>
    <g id="xtick_24">
     <g id="line2d_45">
      <g>
       <use style="stroke:#000000;stroke-width:0.8;" x="648" xlink:href="#maabde1c674" y="448.56"/>
      </g>
     </g>
     <g id="text_48">
      <!-- 100 -->
      <g transform="translate(638.45625 463.158437)scale(0.1 -0.1)">
       <use xlink:href="#DejaVuSans-49"/>
       <use x="63.623047" xlink:href="#DejaVuSans-48"/>
       <use x="127.246094" xlink:href="#DejaVuSans-48"/>
      </g>
     </g>
    </g>
    <g id="text_49">
     <!-- Horizontal dimension (column index) -->
     <g transform="translate(428.996662 476.836563)scale(0.1 -0.1)">
      <use xlink:href="#DejaVuSans-72"/>
      <use x="75.195312" xlink:href="#DejaVuSans-111"/>
      <use x="136.376953" xlink:href="#DejaVuSans-114"/>
      <use x="177.490234" xlink:href="#DejaVuSans-105"/>
      <use x="205.273438" xlink:href="#DejaVuSans-122"/>
      <use x="257.763672" xlink:href="#DejaVuSans-111"/>
      <use x="318.945312" xlink:href="#DejaVuSans-110"/>
      <use x="382.324219" xlink:href="#DejaVuSans-116"/>
      <use x="421.533203" xlink:href="#DejaVuSans-97"/>
      <use x="482.8125" xlink:href="#DejaVuSans-108"/>
      <use x="510.595703" xlink:href="#DejaVuSans-32"/>
      <use x="542.382812" xlink:href="#DejaVuSans-100"/>
      <use x="605.859375" xlink:href="#DejaVuSans-105"/>
      <use x="633.642578" xlink:href="#DejaVuSans-109"/>
      <use x="731.054688" xlink:href="#DejaVuSans-101"/>
      <use x="792.578125" xlink:href="#DejaVuSans-110"/>
      <use x="855.957031" xlink:href="#DejaVuSans-115"/>
      <use x="908.056641" xlink:href="#DejaVuSans-105"/>
      <use x="935.839844" xlink:href="#DejaVuSans-111"/>
      <use x="997.021484" xlink:href="#DejaVuSans-110"/>
      <use x="1060.400391" xlink:href="#DejaVuSans-32"/>
      <use x="1092.1875" xlink:href="#DejaVuSans-40"/>
      <use x="1131.201172" xlink:href="#DejaVuSans-99"/>
      <use x="1186.181641" xlink:href="#DejaVuSans-111"/>
      <use x="1247.363281" xlink:href="#DejaVuSans-108"/>
      <use x="1275.146484" xlink:href="#DejaVuSans-117"/>
      <use x="1338.525391" xlink:href="#DejaVuSans-109"/>
      <use x="1435.9375" xlink:href="#DejaVuSans-110"/>
      <use x="1499.316406" xlink:href="#DejaVuSans-32"/>
      <use x="1531.103516" xlink:href="#DejaVuSans-105"/>
      <use x="1558.886719" xlink:href="#DejaVuSans-110"/>
      <use x="1622.265625" xlink:href="#DejaVuSans-100"/>
      <use x="1685.742188" xlink:href="#DejaVuSans-101"/>
      <use x="1745.515625" xlink:href="#DejaVuSans-120"/>
      <use x="1804.695312" xlink:href="#DejaVuSans-41"/>
     </g>
    </g>
   </g>
   <g id="matplotlib.axis_8">
    <g id="ytick_19">
     <g id="line2d_46">
      <g>
       <use style="stroke:#000000;stroke-width:0.8;" x="394.363636" xlink:href="#m373396ee6a" y="448.56"/>
      </g>
     </g>
     <g id="text_50">
      <!-- 0 -->
      <g transform="translate(381.001136 452.359219)scale(0.1 -0.1)">
       <use xlink:href="#DejaVuSans-48"/>
      </g>
     </g>
    </g>
    <g id="ytick_20">
     <g id="line2d_47">
      <g>
       <use style="stroke:#000000;stroke-width:0.8;" x="394.363636" xlink:href="#m373396ee6a" y="413.971765"/>
      </g>
     </g>
     <g id="text_51">
      <!-- 50 -->
      <g transform="translate(374.638636 417.770983)scale(0.1 -0.1)">
       <use xlink:href="#DejaVuSans-53"/>
       <use x="63.623047" xlink:href="#DejaVuSans-48"/>
      </g>
     </g>
    </g>
    <g id="ytick_21">
     <g id="line2d_48">
      <g>
       <use style="stroke:#000000;stroke-width:0.8;" x="394.363636" xlink:href="#m373396ee6a" y="379.383529"/>
      </g>
     </g>
     <g id="text_52">
      <!-- 100 -->
      <g transform="translate(368.276136 383.182748)scale(0.1 -0.1)">
       <use xlink:href="#DejaVuSans-49"/>
       <use x="63.623047" xlink:href="#DejaVuSans-48"/>
       <use x="127.246094" xlink:href="#DejaVuSans-48"/>
      </g>
     </g>
    </g>
    <g id="ytick_22">
     <g id="line2d_49">
      <g>
       <use style="stroke:#000000;stroke-width:0.8;" x="394.363636" xlink:href="#m373396ee6a" y="344.795294"/>
      </g>
     </g>
     <g id="text_53">
      <!-- 150 -->
      <g transform="translate(368.276136 348.594513)scale(0.1 -0.1)">
       <use xlink:href="#DejaVuSans-49"/>
       <use x="63.623047" xlink:href="#DejaVuSans-53"/>
       <use x="127.246094" xlink:href="#DejaVuSans-48"/>
      </g>
     </g>
    </g>
    <g id="ytick_23">
     <g id="line2d_50">
      <g>
       <use style="stroke:#000000;stroke-width:0.8;" x="394.363636" xlink:href="#m373396ee6a" y="310.207059"/>
      </g>
     </g>
     <g id="text_54">
      <!-- 200 -->
      <g transform="translate(368.276136 314.006278)scale(0.1 -0.1)">
       <use xlink:href="#DejaVuSans-50"/>
       <use x="63.623047" xlink:href="#DejaVuSans-48"/>
       <use x="127.246094" xlink:href="#DejaVuSans-48"/>
      </g>
     </g>
    </g>
    <g id="ytick_24">
     <g id="line2d_51">
      <g>
       <use style="stroke:#000000;stroke-width:0.8;" x="394.363636" xlink:href="#m373396ee6a" y="275.618824"/>
      </g>
     </g>
     <g id="text_55">
      <!-- 250 -->
      <g transform="translate(368.276136 279.418042)scale(0.1 -0.1)">
       <use xlink:href="#DejaVuSans-50"/>
       <use x="63.623047" xlink:href="#DejaVuSans-53"/>
       <use x="127.246094" xlink:href="#DejaVuSans-48"/>
      </g>
     </g>
    </g>
   </g>
   <g id="line2d_52">
    <path clip-path="url(#p1789888059)" d="M 394.363636 282.097791 
L 396.9 284.122468 
L 399.436364 287.800631 
L 401.972727 292.558623 
L 404.509091 297.772166 
L 407.045455 302.816987 
L 409.581818 307.574978 
L 412.118182 312.282353 
L 414.654545 317.630875 
L 417.190909 324.700373 
L 419.727273 334.199484 
L 422.263636 346.651248 
L 424.8 361.026456 
L 427.336364 375.469154 
L 429.872727 387.12792 
L 432.409091 393.438164 
L 434.945455 392.645165 
L 437.481818 384.529584 
L 440.018182 370.390588 
L 442.554545 353.265194 
L 445.090909 335.583013 
L 447.627273 320.161722 
L 450.163636 308.148637 
L 452.7 299.628121 
L 455.236364 293.739684 
L 457.772727 289.774692 
L 460.309091 286.535208 
L 462.845455 283.650043 
L 465.381818 281.254175 
L 467.918182 279.533199 
L 470.454545 278.892052 
L 472.990909 280.208092 
L 475.527273 284.257446 
L 478.063636 291.360689 
L 480.6 301.990244 
L 483.136364 315.639943 
L 485.672727 331.111851 
L 488.209091 346.29693 
L 490.745455 359.221119 
L 493.281818 367.572912 
L 495.818182 370.373716 
L 498.354545 367.741636 
L 500.890909 360.385308 
L 503.427273 350.413773 
L 505.963636 339.497389 
L 508.5 329.323386 
L 511.036364 320.853486 
L 513.572727 314.492626 
L 516.109091 310.274548 
L 518.645455 307.87868 
L 521.181818 307.271277 
L 523.718182 308.334232 
L 526.254545 311.067547 
L 528.790909 315.893027 
L 531.327273 322.760057 
L 533.863636 331.769871 
L 536.4 342.247575 
L 538.936364 353.045854 
L 541.472727 362.578709 
L 544.009091 368.855208 
L 546.545455 370.306227 
L 549.081818 365.885681 
L 551.618182 356.335954 
L 554.154545 342.770617 
L 556.690909 327.38307 
L 559.227273 312.839139 
L 561.763636 300.927288 
L 564.3 293.19977 
L 566.836364 290.550818 
L 569.372727 293.26726 
L 571.909091 300.961033 
L 574.445455 312.872884 
L 576.981818 327.467432 
L 579.518182 342.787489 
L 582.054545 356.369699 
L 584.590909 365.868809 
L 587.127273 370.221865 
L 589.663636 368.770846 
L 592.2 362.477475 
L 594.736364 352.978364 
L 597.272727 342.163214 
L 599.809091 331.668637 
L 602.345455 322.692568 
L 604.881818 315.876155 
L 607.418182 311.067547 
L 609.954545 308.31736 
L 612.490909 307.305022 
L 615.027273 307.895552 
L 617.563636 310.274548 
L 620.1 314.52637 
L 622.636364 320.887231 
L 625.172727 329.390875 
L 627.709091 339.632367 
L 630.245455 350.447518 
L 632.781818 360.402181 
L 635.318182 367.809125 
L 637.854545 370.390588 
L 640.390909 367.505423 
L 642.927273 359.187374 
L 645.463636 346.280057 
L 648 331.111851 
L 650.536364 315.960516 
L 653.072727 302.816987 
L 655.609091 293.402238 
L 658.145455 288.441779 
" style="fill:none;stroke:#000000;stroke-linecap:square;stroke-width:1.5;"/>
   </g>
   <g id="patch_18">
    <path d="M 394.363636 448.56 
L 394.363636 272.16 
" style="fill:none;stroke:#000000;stroke-linecap:square;stroke-linejoin:miter;stroke-width:0.8;"/>
   </g>
   <g id="patch_19">
    <path d="M 648 448.56 
L 648 272.16 
" style="fill:none;stroke:#000000;stroke-linecap:square;stroke-linejoin:miter;stroke-width:0.8;"/>
   </g>
   <g id="patch_20">
    <path d="M 394.363636 448.56 
L 648 448.56 
" style="fill:none;stroke:#000000;stroke-linecap:square;stroke-linejoin:miter;stroke-width:0.8;"/>
   </g>
   <g id="patch_21">
    <path d="M 394.363636 272.16 
L 648 272.16 
" style="fill:none;stroke:#000000;stroke-linecap:square;stroke-linejoin:miter;stroke-width:0.8;"/>
   </g>
   <g id="text_56">
    <!-- Row average (student-ID: 100) -->
    <defs>
     <path d="M 2.984375 54.6875 
L 12.5 54.6875 
L 29.59375 8.796875 
L 46.6875 54.6875 
L 56.203125 54.6875 
L 35.6875 0 
L 23.484375 0 
z
" id="DejaVuSans-118"/>
     <path d="M 45.40625 27.984375 
Q 45.40625 37.75 41.375 43.109375 
Q 37.359375 48.484375 30.078125 48.484375 
Q 22.859375 48.484375 18.828125 43.109375 
Q 14.796875 37.75 14.796875 27.984375 
Q 14.796875 18.265625 18.828125 12.890625 
Q 22.859375 7.515625 30.078125 7.515625 
Q 37.359375 7.515625 41.375 12.890625 
Q 45.40625 18.265625 45.40625 27.984375 
z
M 54.390625 6.78125 
Q 54.390625 -7.171875 48.1875 -13.984375 
Q 42 -20.796875 29.203125 -20.796875 
Q 24.46875 -20.796875 20.265625 -20.09375 
Q 16.0625 -19.390625 12.109375 -17.921875 
L 12.109375 -9.1875 
Q 16.0625 -11.328125 19.921875 -12.34375 
Q 23.78125 -13.375 27.78125 -13.375 
Q 36.625 -13.375 41.015625 -8.765625 
Q 45.40625 -4.15625 45.40625 5.171875 
L 45.40625 9.625 
Q 42.625 4.78125 38.28125 2.390625 
Q 33.9375 0 27.875 0 
Q 17.828125 0 11.671875 7.65625 
Q 5.515625 15.328125 5.515625 27.984375 
Q 5.515625 40.671875 11.671875 48.328125 
Q 17.828125 56 27.875 56 
Q 33.9375 56 38.28125 53.609375 
Q 42.625 51.21875 45.40625 46.390625 
L 45.40625 54.6875 
L 54.390625 54.6875 
z
" id="DejaVuSans-103"/>
    </defs>
    <g transform="translate(428.773381 266.16)scale(0.12 -0.12)">
     <use xlink:href="#DejaVuSans-82"/>
     <use x="64.982422" xlink:href="#DejaVuSans-111"/>
     <use x="126.164062" xlink:href="#DejaVuSans-119"/>
     <use x="207.951172" xlink:href="#DejaVuSans-32"/>
     <use x="239.738281" xlink:href="#DejaVuSans-97"/>
     <use x="301.017578" xlink:href="#DejaVuSans-118"/>
     <use x="360.197266" xlink:href="#DejaVuSans-101"/>
     <use x="421.720703" xlink:href="#DejaVuSans-114"/>
     <use x="462.833984" xlink:href="#DejaVuSans-97"/>
     <use x="524.113281" xlink:href="#DejaVuSans-103"/>
     <use x="587.589844" xlink:href="#DejaVuSans-101"/>
     <use x="649.113281" xlink:href="#DejaVuSans-32"/>
     <use x="680.900391" xlink:href="#DejaVuSans-40"/>
     <use x="719.914062" xlink:href="#DejaVuSans-115"/>
     <use x="772.013672" xlink:href="#DejaVuSans-116"/>
     <use x="811.222656" xlink:href="#DejaVuSans-117"/>
     <use x="874.601562" xlink:href="#DejaVuSans-100"/>
     <use x="938.078125" xlink:href="#DejaVuSans-101"/>
     <use x="999.601562" xlink:href="#DejaVuSans-110"/>
     <use x="1062.980469" xlink:href="#DejaVuSans-116"/>
     <use x="1102.189453" xlink:href="#DejaVuSans-45"/>
     <use x="1138.273438" xlink:href="#DejaVuSans-73"/>
     <use x="1167.765625" xlink:href="#DejaVuSans-68"/>
     <use x="1244.767578" xlink:href="#DejaVuSans-58"/>
     <use x="1278.458984" xlink:href="#DejaVuSans-32"/>
     <use x="1310.246094" xlink:href="#DejaVuSans-49"/>
     <use x="1373.869141" xlink:href="#DejaVuSans-48"/>
     <use x="1437.492188" xlink:href="#DejaVuSans-48"/>
     <use x="1501.115234" xlink:href="#DejaVuSans-41"/>
    </g>
   </g>
  </g>
 </g>
 <defs>
  <clipPath id="p02d3ef1059">
   <rect height="176.4" width="253.636364" x="90" y="60.48"/>
  </clipPath>
  <clipPath id="pa52bbfdc2f">
   <rect height="176.4" width="253.636364" x="394.363636" y="60.48"/>
  </clipPath>
  <clipPath id="p6a4b3eb167">
   <rect height="176.4" width="253.636364" x="90" y="272.16"/>
  </clipPath>
  <clipPath id="p1789888059">
   <rect height="176.4" width="253.636364" x="394.363636" y="272.16"/>
  </clipPath>
 </defs>
</svg>
